{
	"asset":{
		"generator":"Khronos glTF Blender I/O v4.3.47",
		"version":"2.0"
	},
	"scene":0,
	"scenes":[
		{
			"name":"Scene",
			"nodes":[
				0,
				1
			]
		}
	],
	"nodes":[
		{
			"name":"Empty.001",
			"translation":[
				-0.06203922629356384,
				4.107008934020996,
				-0.08625707775354385
			]
		},
		{
			"mesh":0,
			"name":"GreasePencil"
		}
	],
	"materials":[
		{
			"doubleSided":true,
			"name":"Material.002",
			"pbrMetallicRoughness":{
				"baseColorFactor":[
					0.544884204864502,
					0.22538666427135468,
					0.8000315427780151,
					1
				],
				"metallicFactor":0,
				"roughnessFactor":0.5
			}
		},
		{
			"doubleSided":true,
			"emissiveFactor":[
				0.5,
				0.5,
				0.5
			],
			"name":"Material.001",
			"pbrMetallicRoughness":{
				"metallicFactor":0,
				"roughnessFactor":0.5
			}
		},
		{
			"name":"Material.003",
			"pbrMetallicRoughness":{
				"baseColorFactor":[
					0,
					0,
					0,
					1
				],
				"metallicFactor":0
			}
		}
	],
	"meshes":[
		{
			"name":"GreasePencil.007",
			"primitives":[
				{
					"attributes":{
						"POSITION":0,
						"NORMAL":1,
						"TEXCOORD_0":2
					},
					"indices":3,
					"material":0
				},
				{
					"attributes":{
						"POSITION":4,
						"NORMAL":5,
						"TEXCOORD_0":6
					},
					"indices":7,
					"material":1
				},
				{
					"attributes":{
						"POSITION":8,
						"NORMAL":9,
						"TEXCOORD_0":10
					},
					"indices":11,
					"material":2
				}
			]
		}
	],
	"accessors":[
		{
			"bufferView":0,
			"componentType":5126,
			"count":2512,
			"max":[
				0.7837538123130798,
				-0.7525690197944641,
				0.2826232314109802
			],
			"min":[
				-0.9372832179069519,
				-1.0406978130340576,
				0.200605571269989
			],
			"type":"VEC3"
		},
		{
			"bufferView":1,
			"componentType":5126,
			"count":2512,
			"type":"VEC3"
		},
		{
			"bufferView":2,
			"componentType":5126,
			"count":2512,
			"type":"VEC2"
		},
		{
			"bufferView":3,
			"componentType":5123,
			"count":3510,
			"type":"SCALAR"
		},
		{
			"bufferView":4,
			"componentType":5126,
			"count":1677,
			"max":[
				0.9048964977264404,
				1.0768290758132935,
				0.28262171149253845
			],
			"min":[
				-1.0958759784698486,
				-0.5061385631561279,
				0.2006106972694397
			],
			"type":"VEC3"
		},
		{
			"bufferView":5,
			"componentType":5126,
			"count":1677,
			"type":"VEC3"
		},
		{
			"bufferView":6,
			"componentType":5126,
			"count":1677,
			"type":"VEC2"
		},
		{
			"bufferView":7,
			"componentType":5123,
			"count":2340,
			"type":"SCALAR"
		},
		{
			"bufferView":8,
			"componentType":5126,
			"count":4583,
			"max":[
				0.9108999967575073,
				1.0829874277114868,
				0.27484601736068726
			],
			"min":[
				-1.104587435722351,
				-1.046802043914795,
				0.19283035397529602
			],
			"type":"VEC3"
		},
		{
			"bufferView":9,
			"componentType":5126,
			"count":4583,
			"type":"VEC3"
		},
		{
			"bufferView":10,
			"componentType":5126,
			"count":4583,
			"type":"VEC2"
		},
		{
			"bufferView":11,
			"componentType":5123,
			"count":6552,
			"type":"SCALAR"
		}
	],
	"bufferViews":[
		{
			"buffer":0,
			"byteLength":30144,
			"byteOffset":0,
			"target":34962
		},
		{
			"buffer":0,
			"byteLength":30144,
			"byteOffset":30144,
			"target":34962
		},
		{
			"buffer":0,
			"byteLength":20096,
			"byteOffset":60288,
			"target":34962
		},
		{
			"buffer":0,
			"byteLength":7020,
			"byteOffset":80384,
			"target":34963
		},
		{
			"buffer":0,
			"byteLength":20124,
			"byteOffset":87404,
			"target":34962
		},
		{
			"buffer":0,
			"byteLength":20124,
			"byteOffset":107528,
			"target":34962
		},
		{
			"buffer":0,
			"byteLength":13416,
			"byteOffset":127652,
			"target":34962
		},
		{
			"buffer":0,
			"byteLength":4680,
			"byteOffset":141068,
			"target":34963
		},
		{
			"buffer":0,
			"byteLength":54996,
			"byteOffset":145748,
			"target":34962
		},
		{
			"buffer":0,
			"byteLength":54996,
			"byteOffset":200744,
			"target":34962
		},
		{
			"buffer":0,
			"byteLength":36664,
			"byteOffset":255740,
			"target":34962
		},
		{
			"buffer":0,
			"byteLength":13104,
			"byteOffset":292404,
			"target":34963
		}
	],
	"buffers":[
		{
			"byteLength":305508,
			"uri":"logo.bin"
		}
	]
}
